<?xml version="1.0" encoding="UTF-8"?>
<svg xmlns="http://www.w3.org/2000/svg" xmlns:xlink="http://www.w3.org/1999/xlink" width="100pt" height="67pt" viewBox="0 0 100 67" version="1.1">
<defs>
<linearGradient id="linear0" gradientUnits="userSpaceOnUse" x1="0" y1="0.27778" x2="1" y2="0.72222" gradientTransform="matrix(99.625,0,0,66.164062,0.1875,0)">
<stop offset="0" style="stop-color:rgb(100%,29.803922%,11.372549%);stop-opacity:1;"/>
<stop offset="1" style="stop-color:rgb(60.784314%,0%,38.823529%);stop-opacity:1;"/>
</linearGradient>
</defs>
<g id="surface1">
<path style=" stroke:none;fill-rule:nonzero;fill:url(#linear0);" d="M 1.015625 19.472656 C 0.484375 19.855469 0.1875 20.472656 0.1875 21.097656 L 0.1875 21.117188 C 0.1875 21.382812 0.246094 21.648438 0.351562 21.90625 L 9.902344 43.632812 C 10.316406 44.582031 11.394531 45.050781 12.390625 44.699219 C 18.636719 42.464844 40.257812 35.390625 54.253906 39.195312 C 54.253906 39.195312 40.222656 40.027344 27.519531 50.023438 C 26.804688 50.589844 26.566406 51.574219 26.9375 52.410156 C 27.96875 54.746094 30.035156 59.449219 31.207031 62.101562 L 32.851562 65.980469 C 33.242188 66.898438 34.496094 67 35.042969 66.164062 C 38.007812 61.6875 42.996094 59.449219 47.796875 57.488281 C 52.710938 55.488281 57.84375 54.003906 63.074219 53.117188 C 68.636719 52.167969 74.332031 51.917969 79.960938 52.417969 C 80.898438 52.5 81.769531 51.917969 82.054688 51.015625 L 86.371094 37.183594 C 86.621094 36.367188 86.320312 35.472656 85.625 34.972656 C 80.824219 31.46875 61.792969 19.730469 28.332031 24.445312 C 28.332031 24.445312 56.894531 7.976562 93.136719 26.078125 C 94.242188 26.628906 95.5625 26.046875 95.933594 24.878906 L 99.730469 12.679688 C 99.78125 12.488281 99.8125 12.296875 99.8125 12.097656 L 99.8125 12.046875 C 99.8125 11.355469 99.429688 10.695312 98.800781 10.335938 C 94.257812 7.757812 78.855469 0 57.667969 0 C 41.425781 0 21.800781 4.554688 1.015625 19.472656 "/>
</g>
</svg>
